<?xml version="1.0" encoding="UTF-8"?>
<!DOCTYPE svg PUBLIC "-//W3C//DTD SVG 1.1//EN" "http://www.w3.org/Graphics/SVG/1.1/DTD/svg11.dtd">
<!-- Creator: CorelDRAW -->
<svg xmlns="http://www.w3.org/2000/svg" xml:space="preserve" width="9.4454mm" height="10.6477mm" version="1.1" style="shape-rendering:geometricPrecision; text-rendering:geometricPrecision; image-rendering:optimizeQuality; fill-rule:evenodd; clip-rule:evenodd"
viewBox="0 0 271.93 306.54"
 xmlns:xlink="http://www.w3.org/1999/xlink"
 xmlns:xodm="http://www.corel.com/coreldraw/odm/2003">
 <defs>
  <style type="text/css">
   <![CDATA[
    .fil0 {fill:black}
   ]]>
  </style>
 </defs>
 <g id="Layer_x0020_1">
  <metadata id="CorelCorpID_0Corel-Layer"/>
  <path class="fil0" d="M69.61 8.38c-11.04,0 -13.5,-1.28 -23.78,4.97 -6.69,4.06 -10.36,8.96 -10.36,19.58 -2.87,1.92 -4.87,2.24 -8.2,3.78 -3.05,1.42 -5.08,3.01 -7.57,5.01 -4.6,3.72 -8.29,8.65 -11.32,13.83 -3.24,5.55 -2.89,13.7 -3.5,21.66 -1.04,13.53 -10.63,16.6 0.28,42.92 3.66,8.81 14.46,17.22 22.39,22.53 16.51,11.05 13.74,6.33 24.22,4.8 6.85,-1 14.28,0.57 20.92,-1.84 10.8,-3.93 4.07,-5.06 17.16,-1.77 3.24,0.81 5.96,1.68 10.3,1.68 -0.84,10.14 -10.47,17.44 2.13,27.21 5.35,4.15 6.33,7.53 11.04,7.53 5.77,0 6.65,-6.2 4.11,-10.09 -1.89,-2.88 -6.64,-6.56 -9.5,-8.47 3.75,-7.83 8.63,-23.16 -2.01,-27.34l-16.01 -3.16c-18.26,-3.81 -12.58,0.55 -22.46,3.2 -2.68,0.72 -6.26,0.35 -9.24,0.35 -3.9,-0.01 -5.73,-0.05 -8.95,0.63 -9.52,2.03 -7.58,2.55 -19.46,-6.36 -8.25,-6.18 -13.86,-11.88 -16.53,-22.4 -3.09,-12.21 4.24,-19.86 4.23,-32.34 -0,-7.27 0.04,-10.53 3.81,-15.95 11.76,-16.92 24.86,-9.18 26.62,-26.68 0.19,-1.91 -0.18,-2.66 0.47,-4.32 0.96,-2.47 9.47,-6.97 12.8,-6.97 12.48,0 12.28,1.49 23.23,-5.52 5.77,-3.7 17.7,-3.78 21.61,2.6 3.52,5.74 0,14.59 16.41,20.72 2.21,0.83 3.64,1.02 5.59,2.2 15.44,9.4 24.91,-1.55 21.81,-8.03 7.5,0.17 12.68,4.19 20.36,4.19 3.33,0 17.48,-0.99 19.17,-1.8l0.01 7.18c-0.62,9.13 -1.11,12.27 4.29,20.26 2.38,3.52 5.42,5.96 8.44,8.93 7.08,6.96 3.32,20.19 13.46,29.07 3.17,2.77 7.43,3.88 10.51,6.86 1.92,1.86 2.52,2.77 4.2,4.78 9.68,11.63 22.37,3.74 29.17,3.17 -3.41,14.63 -4.35,14.63 -13.26,25.67 -9.68,11.99 -11.32,10.88 -19.84,19.09 -2.99,2.88 -4.95,4.7 -6.84,8.73 -3.82,8.16 -3.78,22.62 -3.78,33.35 0,6.6 1.2,11.94 1.2,18.57 0,7.81 -20.37,8.51 -20.37,22.16 0,8.05 1.92,15.33 -1.38,21.38 -3.53,6.48 -7.3,7.55 -12.75,11.81 -6.13,4.8 -21.03,18.91 -29.6,18.91 -2.48,0 -7.24,-1.34 -8.13,-3.84 -0.38,-1.07 -0.58,-3.64 -0.95,-5.04 -1.22,-4.59 -4.55,-7.89 -6.15,-12.42 -1.15,-3.27 -1.26,-7.41 -2,-10.58 -2.38,-10.25 -9.03,-15.48 -11.17,-25.36 -1.27,-5.85 -0.35,-5.63 -0.35,-11.03 0,-6.71 -12.58,-8.12 -12.58,2.4 0,21.87 6.9,21.21 11.47,34.65 3.08,9.06 0.25,10.61 6.76,21.39 1.18,1.96 1.68,2.33 2.29,4.89 0.45,1.89 0.5,3.79 1.24,5.95 1.3,3.81 3.35,5.6 6.41,7.36 18.44,10.64 35.36,-5.35 48.91,-16.35 10.9,-8.84 21.15,-13.68 21.15,-33.35 0,-7.28 -3.98,-10.02 3.98,-13.98 22.03,-10.95 14.58,-19.02 14.58,-35.73 0,-8.81 -0.82,-19.38 1.57,-27.78 1.72,-6.07 6.54,-8.29 10.84,-11.92 6.96,-5.89 12.77,-12.63 18.55,-19.78 2.47,-3.05 4.45,-5.59 6.53,-9.04 4.22,-6.97 12.09,-33.3 -1.55,-33.3 -9.9,0 -20.12,7.63 -24.67,1.91 -1.45,-1.82 -1.67,-2.16 -3.34,-3.85 -0.78,-0.79 -0.95,-1.05 -1.71,-1.88 -0.08,-0.09 -0.2,-0.22 -0.29,-0.32 -8.42,-8.96 -11.24,0.99 -16.35,-21.98 -2.23,-10.02 -4.95,-11.17 -10.99,-17.15 -8.29,-8.21 -4.94,-9.11 -4.94,-22.61 0,-7.38 -4.06,-13.18 -10.78,-13.18 -7.84,0 -14.31,1.2 -22.16,1.2 -8.49,0 -21.85,-9.02 -29.24,-2.29 -2.73,2.49 -3.1,4.47 -3.1,9.48 -2.06,-1.09 -3.45,-2.22 -5.9,-3.08 -2.34,-0.83 -4.17,-1.18 -6.44,-2.54 -6.33,-3.78 -3.82,-5.16 -6.28,-11.69 -2.74,-7.25 -12.5,-13.84 -22.7,-13.84 -16.49,0 -20.33,8.38 -25.75,8.38z"/>
 </g>
</svg>
