<?xml version="1.0" encoding="UTF-8"?>
<!DOCTYPE svg PUBLIC "-//W3C//DTD SVG 1.1//EN" "http://www.w3.org/Graphics/SVG/1.1/DTD/svg11.dtd">
<!-- Creator: CorelDRAW -->
<svg xmlns="http://www.w3.org/2000/svg" xml:space="preserve" width="6.2799mm" height="5.7683mm" version="1.1" style="shape-rendering:geometricPrecision; text-rendering:geometricPrecision; image-rendering:optimizeQuality; fill-rule:evenodd; clip-rule:evenodd"
viewBox="0 0 51.9 47.67"
 xmlns:xlink="http://www.w3.org/1999/xlink"
 xmlns:xodm="http://www.corel.com/coreldraw/odm/2003">
 <defs>
  <style type="text/css">
   <![CDATA[
    .fil1 {fill:none}
    .fil2 {fill:black}
    .fil0 {fill:black;fill-rule:nonzero}
   ]]>
  </style>
    <clipPath id="id0">
     <path d="M-0 0l51.9 0 0 47.67 -51.9 0 0 -47.67z"/>
    </clipPath>
 </defs>
 <g id="Layer_x0020_1">
  <metadata id="CorelCorpID_0Corel-Layer"/>
  <g id="_105553211353120">
   <g>
   </g>
   <g style="clip-path:url(#id0)">
    <g>
     <path class="fil0" d="M24.52 16.46c1.07,-1.43 -1.07,-3.04 -2.15,-1.61 -2.68,3.58 -3.4,6.8 -4.12,11.1 -1.07,-0.36 -2.15,-0.72 -3.22,-1.25 -0.89,-0.36 -1.79,0.18 -1.97,1.07 -0.36,3.76 -0.54,6.08 -3.4,8.95 -3.22,-8.05 -3.04,-19.87 2.86,-26.67 4.3,-5.19 10.38,-5.91 16.46,-4.83 6.26,3.4 11.45,10.02 7.52,16.64 -3.04,5.01 -10.02,7.34 -15.75,6.62 0.72,-3.76 1.25,-6.98 3.76,-10.02l0 0zm-6.8 11.99c-0.72,2.51 -1.79,4.65 -4.47,6.26 1.43,-2.15 1.97,-4.3 2.33,-6.8 0.72,0.18 1.43,0.36 2.15,0.54l0 0zm18.97 -22.55c11.45,6.44 13.42,21.83 12.35,33.82l-5.37 0 0 -13.42c0,-1.61 -2.68,-1.61 -2.68,0l0 13.42 -4.65 0c1.61,-4.83 -1.07,-9.66 -5.37,-11.99 3.22,-1.25 6.09,-3.58 7.87,-6.44 3.22,-5.37 1.97,-11.1 -2.15,-15.39l0 0zm-3.04 33.29c-1.61,4.12 -6.62,6.09 -10.92,5.73 -4.3,-0.18 -8.59,-2.86 -11.1,-6.44 2.51,-0.89 4.12,-1.97 5.37,-3.22 1.43,6.44 8.95,8.95 12.53,3.4 2.86,-4.47 -2.15,-8.77 -6.26,-6.62 -1.61,0.9 -0.36,3.22 1.25,2.33 1.97,-1.07 4.65,1.43 2.15,3.58 -2.68,2.33 -5.55,0.72 -6.62,-2.33 -0.72,-1.43 -0.72,-3.04 0.18,-4.47 3.76,-5.37 16.64,0 13.42,8.05l0 -0zm1.25 3.04l15.21 0.18c0.72,0 1.43,-0.54 1.43,-1.25 1.07,-10.2 0.18,-21.83 -5.73,-30.43 -7.34,-10.74 -25.95,-15.39 -35.43,-4.47 -4.12,4.83 -5.55,11.81 -5.55,18.08 -3.04,3.04 -6.26,9.66 -4.3,14.14 1.97,-2.51 3.58,-4.3 5.55,-6.09 2.33,8.05 8.05,14.85 17,15.21 4.47,0.36 9.31,-1.61 11.81,-5.37l0 0zm-29.71 -14.32c0,0.54 0.18,1.07 0.18,1.61 -0.9,0.72 -2.33,2.69 -3.04,3.58 0.18,-1.07 1.61,-3.76 2.86,-5.19l0 0z"/>
    </g>
   </g>
   <polygon class="fil1" points="-0,0 51.9,0 51.9,47.67 -0,47.67 "/>
   <path class="fil2" d="M17.72 17c0,0.99 -0.8,1.79 -1.79,1.79 -0.99,0 -1.79,-0.8 -1.79,-1.79 0,-0.99 0.8,-1.79 1.79,-1.79 0.99,0 1.79,0.8 1.79,1.79z"/>
  </g>
 </g>
</svg>
